<svg version="1.1" width="116" height="85" xmlns="http://www.w3.org/2000/svg" xmlns:xlink="http://www.w3.org/1999/xlink">
  <!-- Exported by Scratch - http://scratch.mit.edu/ -->
  <g id="ID0.6204335391521454">
    <g id="Layer_3">
      <path id="ID0.38534649834036827" fill="#FAA51D" stroke="#000000" d="M 22.462 79.039 C 20.047 78.588 17.537 75.729 14.720 75.536 C 13.407 75.466 12.901 77.038 12.700 78 C 11.961 79.926 10.452 82.841 12.025 83.816 C 15.188 85.751 20.023 85.212 23.116 85.128 C 23.927 85.103 30.833 84.474 33.195 81.054 C 35.556 77.634 33.914 76.782 33.105 76.310 C 32.295 75.838 25.878 79.677 22.462 79.039 Z " transform="matrix(-0.20160987973213196, -0.9794659614562988, 0.9794659614562988, -0.20160987973213196, 13.65, 101.15)"/>
    </g>
    <g id="ID0.9538804348558187">
      <path id="ID0.1580700147897005" fill="#FAA51D" d="M 38.217 86.756 C 38.217 86.756 29.385 92.956 21.146 95.168 L 21.232 95.383 C 22.479 97.207 27.102 102.880 20.898 104.879 C 15.565 106.596 5.778 91.775 10.077 88.977 C 12.703 87.264 14.969 88.725 14.969 88.725 C 14.969 88.725 18.443 87.655 20.970 86.380 C 25.273 84.219 26.754 82.927 26.754 82.927 C 26.754 82.927 30.938 78.621 33.610 78.790 C 36.281 78.960 41.669 83.504 38.217 86.756 Z " transform="matrix(-0.20160987973213196, -0.9794659614562988, 0.9794659614562988, -0.20160987973213196, 13.65, 101.15)"/>
      <path id="ID0.0032295454293489456" fill="none" stroke="#231F20" stroke-width="1.2" d="M 21.232 95.383 C 22.479 97.207 27.102 102.880 20.898 104.879 C 15.565 106.596 5.569 91.535 9.868 88.734 C 12.494 87.021 14.969 88.724 14.969 88.724 C 14.969 88.724 18.443 87.652 20.970 86.376 C 25.273 84.215 26.754 82.923 26.754 82.923 " transform="matrix(-0.20160987973213196, -0.9794659614562988, 0.9794659614562988, -0.20160987973213196, 13.65, 101.15)"/>
      <path id="ID0.4572230586782098" fill="none" stroke="#231F20" stroke-width="1.2" d="M 38.217 86.756 C 38.217 86.756 28.094 93.863 19.413 95.575 " transform="matrix(-0.20160987973213196, -0.9794659614562988, 0.9794659614562988, -0.20160987973213196, 13.65, 101.15)"/>
    </g>
    <g id="Layer_2_1_">
      <path id="ID0.8256619344465435" fill="#FAA51D" stroke="#231F20" stroke-width="1.2" d="M 46.753 82.012 C 47.941 81.100 49.150 79.610 50.704 77.299 C 52 75.372 53.404 71.721 53.404 71.721 C 54.279 69.200 55.338 65.145 51.502 64.425 C 49.949 64.134 47.423 64.327 43.832 63.649 C 40.239 62.968 37.034 61.127 34.315 65.882 C 31.597 70.639 30.378 77.736 33.259 82.445 C 35.650 86.332 44.045 86.870 47.350 85.650 C 48.903 84.906 42.976 78.517 42.976 78.517 " transform="matrix(-0.20160987973213196, -0.9794659614562988, 0.9794659614562988, -0.20160987973213196, 13.65, 101.15)"/>
      <path id="ID0.7409821655601263" fill="#FFFFFF" d="M 51.253 75.434 C 51.253 75.434 53.723 72.774 48.784 70.117 C 43.845 67.460 41.571 70.100 40.045 71.638 C 37.401 74.293 43.488 78.249 43.488 78.249 L 46.664 81.453 C 46.664 81.453 48.402 79.806 49.163 78.474 C 50.036 77.260 51.253 75.434 51.253 75.434 " transform="matrix(-0.20160987973213196, -0.9794659614562988, 0.9794659614562988, -0.20160987973213196, 13.65, 101.15)"/>
    </g>
    <path id="ID0.8670057449489832" fill="#FAA51D" stroke="#231F20" stroke-width="1" d="M 29.926 73.218 C 30.675 72.647 32.815 71.016 34.780 69.561 C 37.208 67.762 40.897 63.712 35.857 61.915 C 30.817 60.114 28.350 63.519 24.338 66.861 C 22.179 68.662 19.030 69.560 20.019 73.070 C 21.012 76.581 24.881 86.478 31.808 83.240 C 38.737 80.001 30.009 74.060 28.748 72.083 " transform="matrix(-0.20160987973213196, -0.9794659614562988, 0.9794659614562988, -0.20160987973213196, 13.65, 101.15)"/>
    <g id="Layer_2">
      <path id="ID0.2850914695300162" fill="#FAA51D" stroke="#231F20" stroke-width="1.2" d="M 52.709 14.156 C 51.169 14.013 47.959 13.840 46.191 13.925 C 41.463 14.150 36.967 15.853 36.967 15.853 L 23.949 7.357 L 26.184 26.263 C 26.830 25.481 15.629 39.067 22.705 50.487 C 29.785 61.913 44.938 67.005 63.693 63.279 C 82.448 59.550 86.922 48.748 85.679 43.033 C 84.437 37.319 77.357 35.210 77.357 35.210 C 77.357 35.210 77.267 30.730 74.029 25.240 C 72.103 21.972 65.681 17.199 65.681 17.199 L 62.822 5.647 L 55.370 12.851 L 52.709 14.156 Z " transform="matrix(-0.20160987973213196, -0.9794659614562988, 0.9794659614562988, -0.20160987973213196, 13.65, 101.15)"/>
      <path id="ID0.7305410266853869" fill="#FFFFFF" d="M 76.420 35.066 L 73.938 33.002 L 64.823 35.663 C 64.823 35.663 64.823 39.082 60.456 40.030 C 56.086 40.981 49.245 37.753 49.245 37.753 L 41.460 41.170 C 41.460 41.170 33.023 42.098 32.721 47.251 C 32.048 58.704 46.100 63.479 51.425 63.783 C 54.330 63.950 59.660 63.445 63.702 62.642 C 81.454 59.408 86.253 48.723 85.012 43.007 C 83.770 37.293 77.034 35.811 77.034 35.811 L 76.420 35.066 Z " transform="matrix(-0.20160987973213196, -0.9794659614562988, 0.9794659614562988, -0.20160987973213196, 13.65, 101.15)"/>
      <path id="ID0.4070286676287651" fill="none" stroke="#231F20" stroke-width="1.2" d="M 10.673 46.155 C 10.673 46.155 14.780 46.529 16.647 46.423 C 18.512 46.316 22.139 45.836 22.139 45.836 " transform="matrix(-0.20160987973213196, -0.9794659614562988, 0.9794659614562988, -0.20160987973213196, 13.65, 101.15)"/>
      <path id="ID0.8857215358875692" fill="none" stroke="#231F20" stroke-width="1.2" d="M 81.656 40.671 C 81.656 40.671 86.205 39.928 88.515 39.122 C 91.230 38.180 93.058 36.577 93.058 36.577 " transform="matrix(-0.20160987973213196, -0.9794659614562988, 0.9794659614562988, -0.20160987973213196, 13.65, 101.15)"/>
      <path id="ID0.9942416986450553" fill="none" stroke="#231F20" stroke-width="1.2" d="M 22.337 41.909 C 22.337 41.909 19.953 40.132 16.220 38.479 C 12.086 36.648 9.815 36.176 9.815 36.176 " transform="matrix(-0.20160987973213196, -0.9794659614562988, 0.9794659614562988, -0.20160987973213196, 13.65, 101.15)"/>
      <path id="ID0.7628913568332791" fill="none" stroke="#231F20" stroke-width="1.2" d="M 82.117 46.622 C 82.117 46.622 84.843 47.726 87.650 48.007 C 90.420 48.283 92.296 48.117 92.296 48.117 " transform="matrix(-0.20160987973213196, -0.9794659614562988, 0.9794659614562988, -0.20160987973213196, 13.65, 101.15)"/>
      <path id="ID0.4803139506839216" fill="none" stroke="#000000" stroke-linecap="round" d="M 52.350 14.212 C 55.190 14.912 56.237 15.681 56.237 15.681 " transform="matrix(-0.20160987973213196, -0.9794659614562988, 0.9794659614562988, -0.20160987973213196, 13.65, 101.15)"/>
      <path id="ID0.3077040957286954" fill="none" stroke="#000000" d="M 33.898 13.684 L 39.956 18.042 " transform="matrix(-0.20160987973213196, -0.9794659614562988, 0.9794659614562988, -0.20160987973213196, 13.65, 101.15)"/>
    </g>
    <g id="Layer_5">
      <path id="ID0.35485294507816434" fill="#FAA51D" stroke="#231F20" d="M 71.840 25.366 C 74.764 29.845 74.873 34.957 72.082 36.781 C 69.289 38.606 64.656 36.449 61.728 31.968 C 58.795 27.488 58.691 22.379 61.484 20.553 C 64.275 18.730 68.913 20.884 71.840 25.366 Z " transform="matrix(-0.20160987973213196, -0.9794659614562988, 0.9794659614562988, -0.20160987973213196, 13.65, 101.15)"/>
    </g>
    <g id="Layer_7">
      <path id="ID0.7897290042601526" fill="#FAA51D" stroke="#231F20" d="M 47.867 28.619 C 50.793 33.099 50.486 38.481 47.186 40.634 C 43.884 42.793 38.835 40.906 35.910 36.426 C 32.982 31.946 33.286 26.566 36.588 24.409 C 39.891 22.253 44.938 24.137 47.867 28.619 Z " transform="matrix(-0.20160987973213196, -0.9794659614562988, 0.9794659614562988, -0.20160987973213196, 13.65, 101.15)"/>
    </g>
    <path id="ID0.21039803000167012" fill="#5E4A42" stroke="#000000" d="M 59.766 37.926 C 61.620 37.926 64.321 37.642 64.463 38.495 C 64.606 39.350 62.754 42.698 61.475 42.840 C 60.192 42.982 55.350 40.487 55.280 38.921 C 55.206 37.355 58.055 37.926 59.766 37.926 Z " transform="matrix(-0.20160987973213196, -0.9794659614562988, 0.9794659614562988, -0.20160987973213196, 13.65, 101.15)"/>
    <g id="Layer_4">
      <path id="ID0.7537665944546461" fill="none" stroke="#231F20" stroke-width="1.2" d="M 44 54.500 C 44.760 52.905 54.113 46.146 60 46.500 C 64.421 47.197 69.429 55.087 68.500 57 C 67.659 58.813 60.733 55.391 56.500 55 C 52.358 54.606 43.277 56.051 44 54.500 Z " transform="matrix(-0.20160987973213196, -0.9794659614562988, 0.9794659614562988, -0.20160987973213196, 13.65, 101.15)"/>
    </g>
  </g>
  <path id="ID0.4101214138790965" fill="none" stroke="#000000" stroke-width="2" stroke-linecap="round" d="M 227.500 153 L 241.500 163 " transform="matrix(-0.20160987973213196, -0.979465901851654, 0.979465901851654, -0.20160987973213196, -69.9, 315.5)"/>
  <path id="ID0.940344737842679" fill="none" stroke="#000000" stroke-width="2" stroke-linecap="round" d="M 233 166 L 236.500 150 " transform="matrix(-0.20160987973213196, -0.979465901851654, 0.979465901851654, -0.20160987973213196, -69.9, 315.5)"/>
  <path id="ID0.24273592652752995" fill="none" stroke="#000000" stroke-width="2" stroke-linecap="round" d="M 253 149 L 265.500 159 " transform="matrix(-0.20160987973213196, -0.979465901851654, 0.979465901851654, -0.20160987973213196, -69.9, 315.5)"/>
  <path id="ID0.03346542362123728" fill="none" stroke="#000000" stroke-width="2" stroke-linecap="round" d="M 260 147 L 261 161 " transform="matrix(-0.20160987973213196, -0.979465901851654, 0.979465901851654, -0.20160987973213196, -69.9, 315.5)"/>
</svg>